<?xml version="1.0" encoding="UTF-8" standalone="no"?>
<!DOCTYPE svg PUBLIC "-//W3C//DTD SVG 1.1//EN" "http://www.w3.org/Graphics/SVG/1.1/DTD/svg11.dtd">
<svg width="100%" height="100%" viewBox="0 0 1548 607" version="1.1" xmlns="http://www.w3.org/2000/svg" xmlns:xlink="http://www.w3.org/1999/xlink" xml:space="preserve" xmlns:serif="http://www.serif.com/" style="fill-rule:evenodd;clip-rule:evenodd;stroke-linejoin:round;stroke-miterlimit:2;">
    <g id="Layer-1" serif:id="Layer 1" transform="matrix(4.16667,0,0,4.16667,0,0)">
        <g transform="matrix(1,0,0,1,213.269,70.0181)">
            <path d="M0,-14.004L-11.241,-30.551C-11.385,-30.763 -11.624,-30.889 -11.88,-30.889L-22.519,-30.889C-22.944,-30.889 -23.29,-30.544 -23.29,-30.118L-23.29,16.451C-23.29,16.691 -23.096,16.885 -22.856,16.885L-12.184,16.885C-11.943,16.885 -11.749,16.691 -11.749,16.451L-11.749,-10.838L-2.539,1.792C-1.935,2.677 -0.933,3.207 0.14,3.207L0.255,3.207C1.313,3.207 2.305,2.691 2.912,1.824L12.426,-10.903L12.426,16.451C12.426,16.691 12.62,16.885 12.86,16.885L23.533,16.885C23.772,16.885 23.967,16.691 23.967,16.451L23.967,-30.118C23.967,-30.544 23.621,-30.889 23.195,-30.889L12.613,-30.889C12.357,-30.889 12.118,-30.763 11.975,-30.551L0.736,-14.004C0.56,-13.744 0.177,-13.744 0,-14.004" style="fill:white;fill-rule:nonzero;"/>
        </g>
        <g transform="matrix(1,0,0,1,270.821,69.3583)">
            <path d="M0,-13.189L-0.008,-13.19C-6.224,-13.983 -7.498,-15.22 -7.498,-16.834C-7.498,-19.302 -5.029,-20.776 -0.894,-20.776C2.924,-20.776 6.117,-18.751 7.185,-16.847L7.752,-15.834C7.948,-15.484 8.389,-15.358 8.739,-15.551L16.867,-20.029C17.202,-20.213 17.337,-20.624 17.179,-20.971L16.726,-21.96C13.777,-28.397 7.603,-31.8 -1.145,-31.8C-9.993,-31.726 -18.921,-27.147 -18.921,-17.085C-18.921,-4.148 -6.456,-2.561 -1.111,-1.879C6.707,-0.979 6.707,1.697 6.707,2.704C6.707,6.942 1.433,7.399 -0.836,7.399C-3.126,7.399 -8.663,6.841 -10.61,1.659L-11.089,0.388C-11.245,-0.029 -11.735,-0.209 -12.124,0.007L-20.646,4.738C-20.963,4.914 -21.103,5.295 -20.975,5.633L-20.615,6.581C-17.545,14.677 -11.114,18.611 -0.953,18.611C10.676,18.611 18.189,12.367 18.189,2.704C18.189,-10.787 5.904,-12.41 0,-13.189" style="fill:white;fill-rule:nonzero;"/>
        </g>
        <g transform="matrix(1,0,0,1,328.28,65.1006)">
            <path d="M0,-4.359C-0.987,-3.194 -2.371,-2.603 -4.112,-2.603L-13.18,-2.603C-13.536,-2.603 -13.825,-2.892 -13.825,-3.248L-13.825,-13.737C-13.825,-14.094 -13.536,-14.382 -13.18,-14.382L-4.112,-14.382C-0.304,-14.382 1.4,-11.416 1.4,-8.476C1.4,-6.909 0.89,-5.409 0,-4.359M-4.112,-26.098C-7.341,-26.098 -10.57,-26.082 -13.799,-26.066C-17.021,-26.051 -20.243,-26.035 -23.465,-26.035L-24.72,-26.035C-25.076,-26.035 -25.365,-25.746 -25.365,-25.39L-25.365,21.094C-25.365,21.45 -25.076,21.739 -24.72,21.739L-14.47,21.739C-14.114,21.739 -13.825,21.45 -13.825,21.094L-13.825,9.443C-13.825,9.087 -13.536,8.798 -13.18,8.798L-4.112,8.798C1.114,8.798 5.521,6.892 8.629,3.286C11.352,0.126 12.854,-4.107 12.854,-8.633C12.854,-17.313 7.025,-26.098 -4.112,-26.098" style="fill:white;fill-rule:nonzero;"/>
        </g>
        <g transform="matrix(1,0,0,1,193.024,102.733)">
            <path d="M0,5.098C1.522,5.098 2.55,4.071 2.55,2.573L2.55,2.549C2.55,1.05 1.522,-0.001 0,-0.001L-1.437,-0.001L-1.437,5.098L0,5.098ZM-3.298,-0.75C-3.298,-1.269 -2.888,-1.68 -2.368,-1.68L0,-1.68C2.659,-1.68 4.494,0.145 4.494,2.524L4.494,2.549C4.494,4.929 2.659,6.778 0,6.778L-2.368,6.778C-2.888,6.778 -3.298,6.367 -3.298,5.846L-3.298,-0.75Z" style="fill:white;fill-rule:nonzero;"/>
        </g>
        <g transform="matrix(1,0,0,1,201.077,108.652)">
            <path d="M0,-6.742C0,-7.261 0.41,-7.672 0.93,-7.672C1.45,-7.672 1.861,-7.261 1.861,-6.742L1.861,0C1.861,0.52 1.45,0.93 0.93,0.93C0.41,0.93 0,0.52 0,0L0,-6.742Z" style="fill:white;fill-rule:nonzero;"/>
        </g>
        <g transform="matrix(1,0,0,1,206.874,101.985)">
            <path d="M0,6.594L0,-0.002C0,-0.521 0.41,-0.932 0.93,-0.932L5.617,-0.932C6.077,-0.932 6.451,-0.558 6.451,-0.098C6.451,0.361 6.077,0.724 5.617,0.724L1.849,0.724L1.849,2.439L5.074,2.439C5.533,2.439 5.908,2.814 5.908,3.272C5.908,3.731 5.533,4.094 5.074,4.094L1.849,4.094L1.849,5.87L5.678,5.87C6.138,5.87 6.512,6.244 6.512,6.704C6.512,7.163 6.138,7.526 5.678,7.526L0.93,7.526C0.41,7.526 0,7.115 0,6.594" style="fill:white;fill-rule:nonzero;"/>
        </g>
        <g transform="matrix(1,0,0,1,216.618,101.948)">
            <path d="M0,6.668C-0.205,6.522 -0.35,6.258 -0.35,5.968C-0.35,5.484 0.036,5.109 0.52,5.109C0.762,5.109 0.931,5.194 1.052,5.279C1.691,5.749 2.393,6.04 3.214,6.04C3.976,6.04 4.435,5.738 4.435,5.242L4.435,5.219C4.435,4.747 4.145,4.506 2.73,4.143C1.027,3.708 -0.072,3.236 -0.072,1.558L-0.072,1.533C-0.072,-0.001 1.16,-1.016 2.888,-1.016C3.915,-1.016 4.81,-0.751 5.57,-0.268C5.775,-0.146 5.981,0.107 5.981,0.471C5.981,0.953 5.594,1.328 5.111,1.328C4.93,1.328 4.784,1.279 4.64,1.194C4.023,0.832 3.443,0.627 2.863,0.627C2.15,0.627 1.775,0.953 1.775,1.363L1.775,1.389C1.775,1.943 2.139,2.125 3.601,2.5C5.316,2.946 6.283,3.564 6.283,5.037L6.283,5.061C6.283,6.741 5.002,7.684 3.178,7.684C2.065,7.684 0.943,7.345 0,6.668" style="fill:white;fill-rule:nonzero;"/>
        </g>
        <g transform="matrix(1,0,0,1,226.341,101.985)">
            <path d="M0,6.594L0,-0.002C0,-0.521 0.41,-0.932 0.93,-0.932L5.617,-0.932C6.076,-0.932 6.451,-0.558 6.451,-0.098C6.451,0.361 6.076,0.724 5.617,0.724L1.848,0.724L1.848,2.439L5.073,2.439C5.532,2.439 5.907,2.814 5.907,3.272C5.907,3.731 5.532,4.094 5.073,4.094L1.848,4.094L1.848,5.87L5.678,5.87C6.137,5.87 6.511,6.244 6.511,6.704C6.511,7.163 6.137,7.526 5.678,7.526L0.93,7.526C0.41,7.526 0,7.115 0,6.594" style="fill:white;fill-rule:nonzero;"/>
        </g>
        <g transform="matrix(1,0,0,1,236.255,108.581)">
            <path d="M0,-6.671C0,-7.19 0.41,-7.601 0.93,-7.601C1.449,-7.601 1.86,-7.19 1.86,-6.671L1.86,-0.763L5.304,-0.763C5.775,-0.763 6.149,-0.388 6.149,0.084C6.149,0.555 5.775,0.93 5.304,0.93L0.93,0.93C0.41,0.93 0,0.518 0,-0.002L0,-6.671Z" style="fill:white;fill-rule:nonzero;"/>
        </g>
        <g transform="matrix(1,0,0,1,250.829,101.948)">
            <path d="M0,6.668C-0.205,6.522 -0.35,6.258 -0.35,5.968C-0.35,5.484 0.036,5.109 0.52,5.109C0.762,5.109 0.931,5.194 1.052,5.279C1.691,5.749 2.393,6.04 3.214,6.04C3.976,6.04 4.435,5.738 4.435,5.242L4.435,5.219C4.435,4.747 4.145,4.506 2.73,4.143C1.027,3.708 -0.072,3.236 -0.072,1.558L-0.072,1.533C-0.072,-0.001 1.16,-1.016 2.889,-1.016C3.915,-1.016 4.81,-0.751 5.57,-0.268C5.775,-0.146 5.981,0.107 5.981,0.471C5.981,0.953 5.595,1.328 5.111,1.328C4.93,1.328 4.784,1.279 4.64,1.194C4.023,0.832 3.443,0.627 2.863,0.627C2.15,0.627 1.776,0.953 1.776,1.363L1.776,1.389C1.776,1.943 2.139,2.125 3.602,2.5C5.316,2.946 6.283,3.564 6.283,5.037L6.283,5.061C6.283,6.741 5.003,7.684 3.179,7.684C2.066,7.684 0.943,7.345 0,6.668" style="fill:white;fill-rule:nonzero;"/>
        </g>
        <g transform="matrix(1,0,0,1,267.221,105.258)">
            <path d="M0,0.048L0,0.025C0,-1.427 -1.063,-2.635 -2.562,-2.635C-4.061,-2.635 -5.099,-1.45 -5.099,-0.001L-5.099,0.025C-5.099,1.474 -4.035,2.682 -2.538,2.682C-1.039,2.682 0,1.498 0,0.048M-7.044,0.048L-7.044,0.025C-7.044,-2.38 -5.147,-4.35 -2.538,-4.35C0.072,-4.35 1.945,-2.405 1.945,-0.001L1.945,0.025C1.945,2.429 0.048,4.398 -2.562,4.398C-5.172,4.398 -7.044,2.452 -7.044,0.048" style="fill:white;fill-rule:nonzero;"/>
        </g>
        <g transform="matrix(1,0,0,1,272.64,108.581)">
            <path d="M0,-6.671C0,-7.19 0.41,-7.601 0.93,-7.601C1.449,-7.601 1.861,-7.19 1.861,-6.671L1.861,-0.763L5.304,-0.763C5.775,-0.763 6.149,-0.388 6.149,0.084C6.149,0.555 5.775,0.93 5.304,0.93L0.93,0.93C0.41,0.93 0,0.518 0,-0.002L0,-6.671Z" style="fill:white;fill-rule:nonzero;"/>
        </g>
        <g transform="matrix(1,0,0,1,281.564,104.738)">
            <path d="M0,1.148L0,-2.828C0,-3.346 0.411,-3.757 0.931,-3.757C1.45,-3.757 1.86,-3.346 1.86,-2.828L1.86,1.099C1.86,2.477 2.549,3.19 3.686,3.19C4.82,3.19 5.51,2.501 5.51,1.16L5.51,-2.828C5.51,-3.346 5.92,-3.757 6.439,-3.757C6.959,-3.757 7.37,-3.346 7.37,-2.828L7.37,1.087C7.37,3.649 5.933,4.905 3.66,4.905C1.39,4.905 0,3.637 0,1.148" style="fill:white;fill-rule:nonzero;"/>
        </g>
        <g transform="matrix(1,0,0,1,294.619,107.865)">
            <path d="M0,-5.097L-1.789,-5.097C-2.26,-5.097 -2.646,-5.484 -2.646,-5.955C-2.646,-6.426 -2.26,-6.813 -1.789,-6.813L3.647,-6.813C4.119,-6.813 4.506,-6.426 4.506,-5.955C4.506,-5.484 4.119,-5.097 3.647,-5.097L1.86,-5.097L1.86,0.787C1.86,1.306 1.449,1.716 0.93,1.716C0.41,1.716 0,1.306 0,0.787L0,-5.097Z" style="fill:white;fill-rule:nonzero;"/>
        </g>
        <g transform="matrix(1,0,0,1,302.383,108.652)">
            <path d="M0,-6.742C0,-7.261 0.41,-7.672 0.93,-7.672C1.449,-7.672 1.86,-7.261 1.86,-6.742L1.86,0C1.86,0.52 1.449,0.93 0.93,0.93C0.41,0.93 0,0.52 0,0L0,-6.742Z" style="fill:white;fill-rule:nonzero;"/>
        </g>
        <g transform="matrix(1,0,0,1,314.849,105.258)">
            <path d="M0,0.048L0,0.025C0,-1.427 -1.063,-2.635 -2.562,-2.635C-4.061,-2.635 -5.099,-1.45 -5.099,-0.001L-5.099,0.025C-5.099,1.474 -4.035,2.682 -2.538,2.682C-1.039,2.682 0,1.498 0,0.048M-7.044,0.048L-7.044,0.025C-7.044,-2.38 -5.147,-4.35 -2.538,-4.35C0.072,-4.35 1.945,-2.405 1.945,-0.001L1.945,0.025C1.945,2.429 0.048,4.398 -2.562,4.398C-5.172,4.398 -7.044,2.452 -7.044,0.048" style="fill:white;fill-rule:nonzero;"/>
        </g>
        <g transform="matrix(1,0,0,1,320.268,108.626)">
            <path d="M0,-6.691C0,-7.211 0.41,-7.622 0.93,-7.622L1.123,-7.622C1.57,-7.622 1.836,-7.405 2.091,-7.079L5.678,-2.367L5.678,-6.728C5.678,-7.235 6.089,-7.646 6.597,-7.646C7.104,-7.646 7.515,-7.235 7.515,-6.728L7.515,0.002C7.515,0.522 7.104,0.932 6.585,0.932L6.524,0.932C6.077,0.932 5.812,0.715 5.558,0.388L1.836,-4.493L1.836,0.038C1.836,0.545 1.426,0.955 0.919,0.955C0.41,0.955 0,0.545 0,0.038L0,-6.691Z" style="fill:white;fill-rule:nonzero;"/>
        </g>
        <g transform="matrix(1,0,0,1,331.461,101.948)">
            <path d="M0,6.668C-0.205,6.522 -0.35,6.258 -0.35,5.968C-0.35,5.484 0.036,5.109 0.52,5.109C0.762,5.109 0.931,5.194 1.052,5.279C1.691,5.749 2.393,6.04 3.214,6.04C3.976,6.04 4.435,5.738 4.435,5.242L4.435,5.219C4.435,4.747 4.145,4.506 2.73,4.143C1.027,3.708 -0.072,3.236 -0.072,1.558L-0.072,1.533C-0.072,-0.001 1.16,-1.016 2.889,-1.016C3.915,-1.016 4.81,-0.751 5.57,-0.268C5.775,-0.146 5.981,0.107 5.981,0.471C5.981,0.953 5.594,1.328 5.111,1.328C4.93,1.328 4.784,1.279 4.64,1.194C4.023,0.832 3.443,0.627 2.863,0.627C2.15,0.627 1.776,0.953 1.776,1.363L1.776,1.389C1.776,1.943 2.139,2.125 3.601,2.5C5.316,2.946 6.283,3.564 6.283,5.037L6.283,5.061C6.283,6.741 5.003,7.684 3.179,7.684C2.066,7.684 0.943,7.345 0,6.668" style="fill:white;fill-rule:nonzero;"/>
        </g>
        <g transform="matrix(1,0,0,1,119.742,70.2205)">
            <path d="M0,10.922C-8.212,15.102 -16.782,6.527 -12.593,-1.684C-11.699,-3.435 -10.25,-4.884 -8.5,-5.778C-0.281,-9.974 8.302,-1.384 4.095,6.834C3.2,8.583 1.751,10.03 0,10.922M37.645,-15.86L-3.827,-15.86C-13.109,-15.86 -21.272,-9.163 -22.505,0.038C-24.144,12.271 -13.689,22.614 -1.428,20.787C5.916,19.693 13.057,12.406 14.021,5.045C14.596,0.662 13.618,-3.475 11.563,-6.895L26.614,-6.895C27.548,-3.846 28.021,-0.674 28.021,2.569C28.021,21.576 11.5,36.799 -7.936,34.629C-22.737,32.977 -34.655,21.058 -36.306,6.256C-38.473,-13.179 -23.252,-29.698 -4.245,-29.698L37.645,-29.698L37.645,-15.86ZM46.611,-37.895C46.611,-38.319 46.267,-38.663 45.843,-38.663L-3.422,-38.663C-11.946,-38.663 -19.993,-36.117 -26.726,-31.723L-87.792,-31.723C-88.1,-31.723 -88.287,-31.385 -88.125,-31.123L-82.917,-22.729C-82.845,-22.614 -82.719,-22.544 -82.584,-22.544L-36.783,-22.544C-39.406,-19.215 -41.52,-15.474 -43.007,-11.421L-75.195,-11.421C-75.502,-11.421 -75.69,-11.083 -75.528,-10.822L-70.32,-2.428C-70.249,-2.313 -70.122,-2.243 -69.986,-2.243L-45.191,-2.243C-45.248,-1.757 -45.305,-1.271 -45.344,-0.78C-45.607,2.527 -45.468,5.759 -44.986,8.88L-62.598,8.88C-62.905,8.88 -63.093,9.218 -62.931,9.48L-57.723,17.873C-57.651,17.988 -57.525,18.059 -57.39,18.059L-42.442,18.059C-34.533,37.487 -12.235,49.585 11.156,40.987C22.99,36.638 32.01,26.679 35.34,14.518C37.347,7.19 37.504,-0.058 35.896,-6.895L45.843,-6.895C46.267,-6.895 46.611,-7.239 46.611,-7.663L46.611,-37.895Z" style="fill:white;fill-rule:nonzero;"/>
        </g>
    </g>
</svg>
